HIERARCHY
ROOT Hips
{
  OFFSET 0.849866 78.6569 -0.536788
  CHANNELS 6 Xposition Yposition Zposition Zrotation Xrotation Yrotation
  JOINT Bip01_Pelvis
  {
    OFFSET 0 0 0
    CHANNELS 6 Xposition Yposition Zposition Zrotation Xrotation Yrotation
    JOINT BN_Tail_01
    {
      OFFSET -5.52397 -0.332285 0
      CHANNELS 6 Xposition Yposition Zposition Zrotation Xrotation Yrotation
      JOINT BN_Tail_02
      {
        OFFSET 6.48885 -2.032e-005 0
        CHANNELS 6 Xposition Yposition Zposition Zrotation Xrotation Yrotation
        JOINT BN_Tail_03
        {
          OFFSET 7.08759 1.016e-005 -0.00261112
          CHANNELS 6 Xposition Yposition Zposition Zrotation Xrotation Yrotation
          End Site
          {
            OFFSET 0 0 0
          }
        }
      }
    }
    JOINT Bip01_Spine
    {
      OFFSET 4.02227 0.398968 0
      CHANNELS 6 Xposition Yposition Zposition Zrotation Xrotation Yrotation
      JOINT BN_UpperArm_R_01
      {
        OFFSET 4.84413 -3.22857 -3.65581
        CHANNELS 6 Xposition Yposition Zposition Zrotation Xrotation Yrotation
        JOINT BN_Forearm_R_01
        {
          OFFSET 8.51614 0 0
          CHANNELS 6 Xposition Yposition Zposition Zrotation Xrotation Yrotation
          JOINT BN_hand_R_01
          {
            OFFSET 10.1924 0 0
            CHANNELS 6 Xposition Yposition Zposition Zrotation Xrotation Yrotation
            JOINT BN_Finger_R_02
            {
              OFFSET 14.5949 -1.43855 0.585079
              CHANNELS 6 Xposition Yposition Zposition Zrotation Xrotation Yrotation
              End Site
              {
                OFFSET 0 0 0
              }
            }
            JOINT BN_Finger_R_01
            {
              OFFSET 14.4623 0 0
              CHANNELS 6 Xposition Yposition Zposition Zrotation Xrotation Yrotation
              End Site
              {
                OFFSET 0 0 0
              }
            }
          }
        }
      }
      JOINT BN_UpperArm_L_01
      {
        OFFSET 4.84412 -3.22858 3.65557
        CHANNELS 6 Xposition Yposition Zposition Zrotation Xrotation Yrotation
        JOINT BN_Forearm_L_01
        {
          OFFSET 8.51611 0 0
          CHANNELS 6 Xposition Yposition Zposition Zrotation Xrotation Yrotation
          JOINT BN_hand_L_01
          {
            OFFSET 10.1924 0 0
            CHANNELS 6 Xposition Yposition Zposition Zrotation Xrotation Yrotation
            JOINT BN_Finger_L_01
            {
              OFFSET 14.4623 0 0
              CHANNELS 6 Xposition Yposition Zposition Zrotation Xrotation Yrotation
              End Site
              {
                OFFSET 0 0 0
              }
            }
            JOINT BN_Finger_L_02
            {
              OFFSET 14.5949 1.43855 0.585071
              CHANNELS 6 Xposition Yposition Zposition Zrotation Xrotation Yrotation
              End Site
              {
                OFFSET 0 0 0
              }
            }
          }
        }
      }
      JOINT Bip01_R_Thigh
      {
        OFFSET -4.03411 -0.254132 -3.45377
        CHANNELS 6 Xposition Yposition Zposition Zrotation Xrotation Yrotation
        JOINT Bip01_R_Calf
        {
          OFFSET 3.92618 0 0
          CHANNELS 6 Xposition Yposition Zposition Zrotation Xrotation Yrotation
          JOINT Bip01_R_HorseLink
          {
            OFFSET 6.12319 0 0
            CHANNELS 6 Xposition Yposition Zposition Zrotation Xrotation Yrotation
            JOINT Bip01_R_Foot
            {
              OFFSET 9.94776 0 0
              CHANNELS 6 Xposition Yposition Zposition Zrotation Xrotation Yrotation
              JOINT Bip01_R_Toe3
              {
                OFFSET 0.881252 -0.110953 0.0158496
                CHANNELS 6 Xposition Yposition Zposition Zrotation Xrotation Yrotation
                JOINT Bip01_R_Toe31
                {
                  OFFSET 2.32137 0 0
                  CHANNELS 6 Xposition Yposition Zposition Zrotation Xrotation Yrotation
                  JOINT Bip01_R_Toe32
                  {
                    OFFSET 1.63293 0 0
                    CHANNELS 6 Xposition Yposition Zposition Zrotation Xrotation Yrotation
                    JOINT Bip01_R_Toe3Nub
                    {
                      OFFSET 1.72131 0 0
                      CHANNELS 6 Xposition Yposition Zposition Zrotation Xrotation Yrotation
                      End Site
                      {
                        OFFSET 0 0 0
                      }
                    }
                  }
                }
              }
              JOINT Bip01_R_Toe2
              {
                OFFSET 0.994751 0.967285 -1.09428
                CHANNELS 6 Xposition Yposition Zposition Zrotation Xrotation Yrotation
                JOINT Bip01_R_Toe21
                {
                  OFFSET 2.20201 0 0
                  CHANNELS 6 Xposition Yposition Zposition Zrotation Xrotation Yrotation
                  JOINT Bip01_R_Toe22
                  {
                    OFFSET 1.84925 0 0
                    CHANNELS 6 Xposition Yposition Zposition Zrotation Xrotation Yrotation
                    JOINT Bip01_R_Toe2Nub
                    {
                      OFFSET 1.70976 0 0
                      CHANNELS 6 Xposition Yposition Zposition Zrotation Xrotation Yrotation
                      End Site
                      {
                        OFFSET 0 0 0
                      }
                    }
                  }
                }
              }
              JOINT Bip01_R_Toe1
              {
                OFFSET 1.3748 1.34027 -0.0712419
                CHANNELS 6 Xposition Yposition Zposition Zrotation Xrotation Yrotation
                JOINT Bip01_R_Toe11
                {
                  OFFSET 2.26122 0 0
                  CHANNELS 6 Xposition Yposition Zposition Zrotation Xrotation Yrotation
                  JOINT Bip01_R_Toe12
                  {
                    OFFSET 2.22215 0 0
                    CHANNELS 6 Xposition Yposition Zposition Zrotation Xrotation Yrotation
                    JOINT Bip01_R_Toe1Nub
                    {
                      OFFSET 1.61867 0 0
                      CHANNELS 6 Xposition Yposition Zposition Zrotation Xrotation Yrotation
                      End Site
                      {
                        OFFSET 0 0 0
                      }
                    }
                  }
                }
              }
              JOINT Bip01_R_Toe0
              {
                OFFSET 1.40695 0.687986 0.883783
                CHANNELS 6 Xposition Yposition Zposition Zrotation Xrotation Yrotation
                JOINT Bip01_R_Toe01
                {
                  OFFSET 2.26828 0 0
                  CHANNELS 6 Xposition Yposition Zposition Zrotation Xrotation Yrotation
                  JOINT Bip01_R_Toe02
                  {
                    OFFSET 2.09769 0 0
                    CHANNELS 6 Xposition Yposition Zposition Zrotation Xrotation Yrotation
                    JOINT Bip01_R_Toe0Nub
                    {
                      OFFSET 1.53753 0 0
                      CHANNELS 6 Xposition Yposition Zposition Zrotation Xrotation Yrotation
                      End Site
                      {
                        OFFSET 0 0 0
                      }
                    }
                  }
                }
              }
            }
          }
        }
      }
      JOINT Bip01_L_Thigh
      {
        OFFSET -4.03411 -0.254147 3.45377
        CHANNELS 6 Xposition Yposition Zposition Zrotation Xrotation Yrotation
        JOINT Bip01_L_Calf
        {
          OFFSET 3.92616 0 0
          CHANNELS 6 Xposition Yposition Zposition Zrotation Xrotation Yrotation
          JOINT Bip01_L_HorseLink
          {
            OFFSET 6.1232 0 0
            CHANNELS 6 Xposition Yposition Zposition Zrotation Xrotation Yrotation
            JOINT Bip01_L_Foot
            {
              OFFSET 9.94775 0 0
              CHANNELS 6 Xposition Yposition Zposition Zrotation Xrotation Yrotation
              JOINT Bip01_L_Toe3
              {
                OFFSET 0.881246 -0.110986 -0.0157582
                CHANNELS 6 Xposition Yposition Zposition Zrotation Xrotation Yrotation
                JOINT Bip01_L_Toe31
                {
                  OFFSET 2.32136 0 0
                  CHANNELS 6 Xposition Yposition Zposition Zrotation Xrotation Yrotation
                  JOINT Bip01_L_Toe32
                  {
                    OFFSET 1.63293 0 0
                    CHANNELS 6 Xposition Yposition Zposition Zrotation Xrotation Yrotation
                    JOINT Bip01_L_Toe3Nub
                    {
                      OFFSET 1.7213 0 0
                      CHANNELS 6 Xposition Yposition Zposition Zrotation Xrotation Yrotation
                      End Site
                      {
                        OFFSET 0 0 0
                      }
                    }
                  }
                }
              }
              JOINT Bip01_L_Toe2
              {
                OFFSET 0.994649 0.967162 1.09447
                CHANNELS 6 Xposition Yposition Zposition Zrotation Xrotation Yrotation
                JOINT Bip01_L_Toe21
                {
                  OFFSET 2.202 0 0
                  CHANNELS 6 Xposition Yposition Zposition Zrotation Xrotation Yrotation
                  JOINT Bip01_L_Toe22
                  {
                    OFFSET 1.84926 0 0
                    CHANNELS 6 Xposition Yposition Zposition Zrotation Xrotation Yrotation
                    JOINT Bip01_L_Toe2Nub
                    {
                      OFFSET 1.70976 0 0
                      CHANNELS 6 Xposition Yposition Zposition Zrotation Xrotation Yrotation
                      End Site
                      {
                        OFFSET 0 0 0
                      }
                    }
                  }
                }
              }
              JOINT Bip01_L_Toe1
              {
                OFFSET 1.37483 1.34021 0.0715086
                CHANNELS 6 Xposition Yposition Zposition Zrotation Xrotation Yrotation
                JOINT Bip01_L_Toe11
                {
                  OFFSET 2.26124 0 0
                  CHANNELS 6 Xposition Yposition Zposition Zrotation Xrotation Yrotation
                  JOINT Bip01_L_Toe12
                  {
                    OFFSET 2.22214 0 0
                    CHANNELS 6 Xposition Yposition Zposition Zrotation Xrotation Yrotation
                    JOINT Bip01_L_Toe1Nub
                    {
                      OFFSET 1.61867 0 0
                      CHANNELS 6 Xposition Yposition Zposition Zrotation Xrotation Yrotation
                      End Site
                      {
                        OFFSET 0 0 0
                      }
                    }
                  }
                }
              }
              JOINT Bip01_L_Toe0
              {
                OFFSET 1.40707 0.688009 -0.883564
                CHANNELS 6 Xposition Yposition Zposition Zrotation Xrotation Yrotation
                JOINT Bip01_L_Toe01
                {
                  OFFSET 2.26828 0 0
                  CHANNELS 6 Xposition Yposition Zposition Zrotation Xrotation Yrotation
                  JOINT Bip01_L_Toe02
                  {
                    OFFSET 2.0977 0 0
                    CHANNELS 6 Xposition Yposition Zposition Zrotation Xrotation Yrotation
                    JOINT Bip01_L_Toe0Nub
                    {
                      OFFSET 1.53752 0 0
                      CHANNELS 6 Xposition Yposition Zposition Zrotation Xrotation Yrotation
                      End Site
                      {
                        OFFSET 0 0 0
                      }
                    }
                  }
                }
              }
            }
          }
        }
      }
      JOINT Bip01_Spine1
      {
        OFFSET 4.90674 -0.00437896 0
        CHANNELS 6 Xposition Yposition Zposition Zrotation Xrotation Yrotation
        JOINT Bip01_Neck
        {
          OFFSET 5.56447 -1.28357 0
          CHANNELS 6 Xposition Yposition Zposition Zrotation Xrotation Yrotation
          JOINT Bip01_Neck1
          {
            OFFSET 2.79308 -0.00219964 0
            CHANNELS 6 Xposition Yposition Zposition Zrotation Xrotation Yrotation
            JOINT Bip01_Head
            {
              OFFSET 2.79272 0 0
              CHANNELS 6 Xposition Yposition Zposition Zrotation Xrotation Yrotation
              JOINT BN_Mouth_01
              {
                OFFSET 4.19089 0.0665938 0
                CHANNELS 6 Xposition Yposition Zposition Zrotation Xrotation Yrotation
                End Site
                {
                  OFFSET 0 0 0
                }
              }
              JOINT Bip01_HeadNub
              {
                OFFSET 6.95118 0 0
                CHANNELS 6 Xposition Yposition Zposition Zrotation Xrotation Yrotation
                End Site
                {
                  OFFSET 0 0 0
                }
              }
            }
          }
        }
      }
    }
  }
}
MOTION
Frames:	3
Frame Time:	0.0333333
-41.181 101.709 0.162817 96.8164 -83.6808 174.26 0 0 0 -89.1297 -0.656341 -88.9072 -5.52397 -0.332276 8.88178e-016 -18.1627 -2.14118 -178.997 6.48885 7.62939e-006 0.00426974 -0.241298 -3.83066e-009 -2.36384e-008 7.08759 -1.05303e-011 0.0042037 45.2333 -0.0133453 0.0134547 4.03948 -0.0825314 0.0772313 -9.93852 -0.466795 -4.4472 4.75128 -3.29792 -5.67123 -113.222 -19.1122 96.7741 8.51614 3.8147e-006 2.84217e-013 38.6182 -1.41438 25.8575 10.1924 4.61854e-013 9.09494e-013 -8.50821 -26.0952 31.3499 14.5949 -1.43857 0.585086 -49.6442 14.8665 31.6946 14.4623 -7.10544e-015 -1.42108e-014 -3.45587 0.581655 23.2687 4.9577 -3.14306 4.23647 66.4965 -17.8258 -90.9179 8.51613 1.90735e-006 0 -29.8571 -1.16819 23.3912 10.1924 3.8147e-006 9.53674e-006 -0.221208 16.9734 56.1063 14.4623 -1.90735e-006 -3.81469e-006 -1.79308 -27.1266 2.56862 14.5949 1.43854 0.585086 3.35055 -0.609935 13.7281 -4.25544 -0.587073 -3.21541 -118.317 1.9777 -139.79 3.92617 -1.90735e-006 2.98428e-013 -84.7911 -4.26825e-006 6.41978e-006 6.12319 7.62942e-006 4.12115e-013 76.4383 -0.00106371 0.00442073 9.94775 -1.89005e-012 0.00128841 50.3985 -12.8882 -38.969 0.881242 -0.11092 0.0158269 140.382 -4.4492 178.822 2.32137 -1.4211e-014 4.76837e-007 22.896 -0.0189384 -0.0214107 1.63293 -2.66457e-015 -2.38032e-013 0.0129704 -0.00241874 0.0121749 1.72131 3.55276e-015 -4.76837e-007 1.26055e-006 1.07189e-005 9.34239e-008 0.994667 0.967472 -1.09416 -4.3973 -27.2472 -3.73113 2.20201 -7.62947e-006 -2.38419e-007 -5.96181 -0.00253789 0.0243154 1.84924 -1.4211e-014 -2.38419e-007 -0.0134498 -2.26657e-005 0.0247502 1.70977 7.62948e-006 0 -1.92663e-007 9.67122e-006 -6.89304e-007 1.37472 1.34035 -0.0710845 2.67217 2.69096 -0.122257 2.26123 0 -2.06057e-013 -15.6635 -0.00843499 0.0300175 2.22214 3.81474e-006 7.15256e-007 0.0034896 -1.43158e-006 -0.0139789 1.61868 -7.62947e-006 2.38419e-007 -2.49242e-007 -2.44291e-008 9.77468e-008 1.40692 0.687939 0.883855 -4.59812 31.8134 2.42462 2.26828 1.52589e-005 9.53673e-007 -11.9785 -0.00379337 0.0205269 2.0977 1.4211e-014 0 0.00698367 0.00355729 -0.0034887 1.53753 7.62949e-006 -1.32161e-012 2.55813e-007 -1.03554e-007 -1.11424e-007 -3.71946 -0.643494 3.67107 -83.324 9.17316 -166.922 3.92615 7.10544e-015 2.84217e-014 -34.2079 -2.02058e-005 -1.29362e-006 6.1232 0 -7.10543e-015 122.459 -0.000749153 -0.00117961 9.94775 -0.000740054 -0.000729561 -83.7669 16.2759 -2.16804 0.881231 -0.111024 -0.0158696 172.039 4.33322 178.685 2.32137 -0.000554567 -2.38424e-007 19.5174 0.0116004 0.0208561 1.63293 0.000614173 -7.15257e-007 -0.0117891 0.00129693 -0.00832279 1.72132 -4.76843e-007 2.38419e-007 -179.961 0.00755963 0.0010226 0.994847 0.967262 1.0942 35.8565 23.772 -14.2142 2.202 0.00086976 3.8147e-006 22.1701 0.0145474 -0.0237365 1.84926 -0.00118066 -0.00068283 0.0174828 0.00529989 -0.0160824 1.70977 -1.90737e-006 3.55271e-015 179.961 0.00856887 -0.000486639 1.3749 1.34017 0.07114 52.4663 -1.6424 2.13508 2.26124 0.000759133 0.000599146 -25.0569 0.0123678 -0.0264473 2.22211 0.000749598 0.000683784 -0.0209858 -0.00461614 0.0244781 1.61868 7.10553e-015 -3.62377e-013 -179.961 -0.00741083 0.000103959 1.40696 0.687834 -0.883854 57.9062 -18.2947 26.5921 2.26828 7.62948e-006 -3.19744e-013 -18.9534 0.0100887 -0.0293728 2.09772 1.90737e-006 -3.81469e-006 5.13158e-011 -1.86984e-005 -0.00414329 1.53753 3.81476e-006 -3.81469e-006 179.961 -0.00421466 -0.0044921 4.9071 -0.00428009 -3.33933e-011 -3.23293 3.14006 -4.43436 5.56426 -1.28359 0.000256522 -2.14617 2.09492 4.78788 2.79364 -0.00200653 0.000150204 6.01591 3.18268 4.07623 2.79273 0 0 32.1451 -2.85877 0.550785 4.19086 0.0665818 -9.80336e-010 -140.846 -0.0375061 -179.987 6.95116 -2.84217e-014 -3.55271e-015 -4.86104e-006 9.96127e-006 1.00603e-005 
-41.2983 101.289 0.232491 92.0123 -83.8353 171.73 0 0 0 -89.2618 0.445535 -89.4579 -5.52397 -0.332276 -8.88178e-016 -18.1349 -2.10484 -178.997 6.48885 7.62939e-006 0.00426974 -9.5513 0.000579618 -0.00695703 7.08759 -2.44143e-011 0.0042037 43.3304 -0.0115543 0.0153681 4.04081 -0.00494706 0.0383743 -10.0446 -0.333535 -3.67751 4.74844 -3.30014 -5.73457 -113.064 -21.3501 82.8325 8.51614 3.8147e-006 2.27374e-013 48.0271 -1.58583 18.5171 10.1924 4.61854e-013 6.6791e-013 -12.8871 -32.3538 41.6349 14.5949 -1.43857 0.585086 -50.2209 14.3574 33.548 14.4623 1.42109e-014 2.84217e-014 -3.47139 0.561583 25.6742 5.02741 -3.091 4.58971 66.9626 -19.709 -101.452 8.51613 1.90735e-006 1.42108e-014 -34.7706 -2.04829 14.8875 10.1924 3.8147e-006 9.53674e-006 3.87683 20.5625 61.6616 14.4623 -1.90735e-006 -3.81469e-006 -1.73783 -30.0134 5.45349 14.5949 1.43854 0.585086 3.38594 -0.58179 18.0399 -4.19592 -0.679654 -3.23351 -120.374 1.2018 -139.353 3.92617 -1.90735e-006 3.41061e-013 -89.7541 -1.46969e-005 6.04714e-006 6.12319 7.62942e-006 3.97904e-013 76.1448 0.00100796 0.00493194 9.94775 2.62902e-012 0.00128841 50.2061 -9.95765 -40.3652 0.881242 -0.11092 0.0158269 140.345 -4.454 178.817 2.32137 0 4.76837e-007 22.895 -0.0191615 -0.0219395 1.63293 -4.44095e-015 -2.55795e-013 0.0132168 -0.00241858 0.012628 1.72131 -2.66457e-015 -4.76837e-007 1.26055e-006 1.07189e-005 9.34239e-008 0.994667 0.967472 -1.09416 -5.6582 -27.1706 -4.30789 2.20201 -7.62947e-006 -2.38419e-007 -6.43112 1.82915e-007 1.06915e-005 1.84924 -1.4211e-014 -2.38418e-007 -0.0110315 -2.219e-005 0.0277082 1.70977 7.62948e-006 0 -1.92663e-007 9.67122e-006 -6.89303e-007 1.37472 1.34035 -0.0710845 1.80709 2.69208 -0.0844484 2.26123 0 -1.74083e-013 -17.0131 -1.63544e-005 -5.6185e-006 2.22214 3.81474e-006 7.15256e-007 -0.00699109 -4.85089e-006 0.0349709 1.61868 -7.62947e-006 2.38419e-007 -2.49242e-007 -2.4429e-008 9.77155e-008 1.40692 0.687939 0.883854 -5.96754 31.7588 3.14792 2.26829 1.52589e-005 9.53673e-007 -13.4635 0.000534875 0.000126122 2.0977 -1.4211e-014 1.42108e-014 -0.0209822 0.00354619 0.0314758 1.53753 7.62949e-006 -1.35003e-012 2.55813e-007 -1.03554e-007 -1.11424e-007 -3.75256 -0.719905 3.65966 -88.0739 8.18655 -166.35 3.92615 0 2.13163e-014 -41.5521 -1.34637e-005 -1.14971e-005 6.1232 -1.42109e-014 0 129.155 -0.000874664 -0.00108995 9.94776 -0.000740054 -0.000729561 -88.9029 16.5218 -1.50623 0.881231 -0.111024 -0.0158696 172.148 4.33071 178.676 2.32137 -0.000554567 -2.38424e-007 19.1113 0.00148747 -0.00782028 1.63293 0.000614173 -7.15256e-007 -0.0120225 0.00129688 -0.0079403 1.72133 -4.76843e-007 2.38419e-007 -179.961 0.00755963 0.0010226 0.994847 0.967262 1.0942 36.2699 23.675 -14.3808 2.202 0.00086976 3.8147e-006 21.5041 0.0281853 0.0103504 1.84926 -0.00118066 -0.00068283 0.0180024 0.00529996 -0.0153995 1.70977 -1.90737e-006 0 179.961 0.00856887 -0.000486639 1.3749 1.34017 0.07114 52.8485 -1.6259 2.14369 2.26124 0.000759133 0.000599146 -25.4225 2.60909e-006 1.11486e-006 2.22211 0.000749598 0.000683784 -0.0279801 -0.00461514 0.0163186 1.61868 0 -3.69482e-013 -179.961 -0.00741083 0.000103959 1.40697 0.687833 -0.883854 58.1613 -18.1735 26.672 2.26828 7.62948e-006 -3.37507e-013 -19.2655 -7.68118e-007 6.52327e-006 2.09772 1.90737e-006 -3.81469e-006 -2.39872e-011 -1.86985e-005 0.00127043 1.53753 3.81476e-006 -3.81469e-006 179.961 -0.00421466 -0.0044921 4.9071 -0.00428009 -3.22276e-011 -3.48142 4.21675 -3.49959 5.56426 -1.28359 0.000256524 -8.25222 2.74342 5.7205 2.79364 -0.00200653 0.000150204 9.79739 4.72843 4.4579 2.79273 0 7.10543e-015 36.6042 -5.20056 -2.45327 4.19086 0.0665818 -1.49374e-009 -140.736 -0.0379944 -179.986 6.95116 1.42109e-014 3.55271e-015 -4.86104e-006 9.96127e-006 1.00603e-005 
-41.4533 100.574 0.287943 87.1808 -84.1364 169.014 0 0 0 -89.5439 1.3989 -89.8375 -5.52397 -0.332276 -8.88178e-016 -18.0868 -2.07689 -178.996 6.48885 7.62939e-006 0.00426974 -16.2513 0.0029266 -0.00349101 7.08759 -3.58966e-011 0.0042037 40.6818 -0.0143705 0.012353 4.04043 0.0624126 0.0115088 -10.0298 -0.0442163 -3.00095 4.74598 -3.30197 -5.78959 -113.068 -23.5033 68.2711 8.51614 3.8147e-006 2.84217e-013 57.9623 -1.70732 10.3648 10.1924 -2.2471e-013 1.42108e-014 -16.1231 -36.0703 52.9389 14.5949 -1.43857 0.585087 -50.7831 13.8267 35.4014 14.4623 1.42109e-014 -2.84217e-014 -3.48093 0.548975 27.1514 5.10037 -3.03584 4.96616 67.4463 -21.5332 -112.335 8.51613 1.90735e-006 -1.42108e-014 -40.2695 -2.99777 5.85596 10.1924 3.8147e-006 9.53673e-006 8.62676 23.1133 67.0644 14.4623 -1.90735e-006 -3.81469e-006 -1.45801 -32.2954 7.89643 14.5949 1.43854 0.585086 3.4177 -0.557366 21.9266 -4.14383 -0.762372 -3.25338 -122.561 0.385801 -139.118 3.92617 -1.90735e-006 3.55271e-013 -94.5991 -6.02627e-006 5.50453e-006 6.12319 7.62942e-006 3.97904e-013 75.6907 -0.00112231 0.00440663 9.94775 7.19429e-012 0.00128841 49.7935 -6.5426 -41.3792 0.881242 -0.11092 0.0158269 140.323 -4.45001 178.817 2.32137 -1.06583e-014 4.76837e-007 22.8941 -0.0193953 -0.0224935 1.63294 3.55276e-015 -2.80664e-013 0.0134921 -0.00241841 0.0130844 1.72131 -2.13166e-014 -4.76837e-007 1.26055e-006 1.07189e-005 9.34239e-008 0.994667 0.967471 -1.09416 -6.66988 -27.0979 -4.76728 2.20201 -7.62947e-006 -2.38419e-007 -6.81205 -0.00286887 0.0240271 1.84924 -1.4211e-014 -2.38418e-007 -0.00858427 -2.14547e-005 0.0306962 1.70977 7.62948e-006 3.55271e-015 -1.92663e-007 9.67122e-006 -6.89303e-007 1.37472 1.34035 -0.0710845 1.11571 2.69271 -0.0506083 2.26123 0 -1.59872e-013 -18.111 -0.000100601 0.000252078 2.22214 3.81474e-006 7.15256e-007 -0.00669843 -4.55115e-006 0.03394 1.61868 -7.62947e-006 2.38419e-007 -2.49242e-007 -2.44291e-008 9.77155e-008 1.40692 0.687939 0.883854 -7.06513 31.7009 3.72551 2.26829 1.52589e-005 9.53673e-007 -14.7019 -0.00386875 0.0169097 2.0977 1.77638e-014 -2.13163e-014 -0.0186278 0.00354854 0.0282372 1.53753 7.62949e-006 -1.36424e-012 2.55813e-007 -1.03554e-007 -1.11424e-007 -3.78216 -0.767926 3.64467 -92.7415 7.18957 -165.846 3.92615 7.10544e-015 7.10543e-015 -48.7664 -1.26496e-005 -1.28691e-005 6.12319 -1.42109e-014 -1.42109e-014 134.714 0.00128831 -0.00324209 9.94776 -0.000740054 -0.000729561 -93.5942 16.5524 -0.542989 0.881231 -0.111024 -0.0158696 172.223 4.33096 178.68 2.32137 -0.000554567 -2.38426e-007 18.703 -0.00821637 -0.0366375 1.63293 0.000614173 -7.15256e-007 -0.0122616 0.00129683 -0.00753048 1.72133 -4.76843e-007 2.38419e-007 -179.961 0.00755963 0.0010226 0.994847 0.967262 1.0942 36.6225 23.5918 -14.5225 2.202 0.00086976 3.8147e-006 20.8868 0.0328129 0.0230763 1.84926 -0.00118066 -0.00068283 0.0184938 0.00530006 -0.0146892 1.70977 -1.90737e-006 3.55271e-015 179.961 0.00856887 -0.000486639 1.3749 1.34017 0.07114 53.1716 -1.61354 2.15305 2.26124 0.000759133 0.000599146 -25.6867 -0.0139641 0.0290389 2.22211 0.000749598 0.000683784 -0.0350415 -0.00461211 0.00807699 1.61868 7.10552e-015 -3.87246e-013 -179.961 -0.00741083 0.000103959 1.40697 0.687833 -0.883854 58.3674 -18.0777 26.7369 2.26828 7.62948e-006 -3.48166e-013 -19.5516 -0.0102752 0.0289373 2.09772 1.90737e-006 -3.81469e-006 -9.35219e-006 -1.86997e-005 0.00672839 1.53753 3.81476e-006 -3.81469e-006 179.961 -0.00421466 -0.0044921 4.9071 -0.00428009 -3.01483e-011 -3.58051 5.00524 -2.77584 5.56426 -1.28359 0.000256526 -13.6472 3.18444 6.13516 2.79364 -0.00200653 0.000150204 12.6828 6.01078 4.6053 2.79273 1.42109e-014 1.42109e-014 39.6965 -6.65198 -5.27305 4.19086 0.0665818 -1.99123e-009 -140.621 -0.0379791 -179.986 6.95116 1.42109e-014 -3.55271e-015 -4.86104e-006 9.96127e-006 1.00603e-005 
